<mxfile host="app.diagrams.net" modified="2023-04-28T14:13:39.433Z" agent="5.0 (Windows NT 10.0; Win64; x64) AppleWebKit/537.36 (KHTML, like Gecko) Chrome/112.0.0.0 Safari/537.36" version="20.6.0" etag="17Acci1UnwKEpR00d0vu" type="github">
  <diagram id="vlLfO3BPWwRQAAepj7Dc" name="Page-1">
    <mxGraphModel dx="1673" dy="867" grid="1" gridSize="10" guides="1" tooltips="1" connect="1" arrows="1" fold="1" page="1" pageScale="1" pageWidth="1169" pageHeight="827" math="0" shadow="0">
      <root>
        <mxCell id="0" />
        <mxCell id="1" parent="0" />
        <mxCell id="qTTyC-xt6pcrKishkEDp-7" value="PKS" style="rounded=1;whiteSpace=wrap;html=1;labelPosition=center;verticalLabelPosition=top;align=left;verticalAlign=bottom;fillColor=#ffe6cc;strokeColor=#d79b00;" vertex="1" parent="1">
          <mxGeometry x="150" y="290" width="660" height="810" as="geometry" />
        </mxCell>
        <mxCell id="qTTyC-xt6pcrKishkEDp-10" value="3rd Party" style="rounded=1;whiteSpace=wrap;html=1;labelPosition=center;verticalLabelPosition=top;align=left;verticalAlign=bottom;fillColor=#dae8fc;strokeColor=#6c8ebf;" vertex="1" parent="1">
          <mxGeometry x="840" y="60" width="220" height="180" as="geometry" />
        </mxCell>
        <mxCell id="qTTyC-xt6pcrKishkEDp-9" value="Databases" style="rounded=1;whiteSpace=wrap;html=1;labelPosition=center;verticalLabelPosition=top;align=left;verticalAlign=bottom;" vertex="1" parent="1">
          <mxGeometry x="850" y="480" width="220" height="410" as="geometry" />
        </mxCell>
        <mxCell id="qTTyC-xt6pcrKishkEDp-1" value="eiros" style="sketch=0;html=1;dashed=0;whitespace=wrap;fillColor=#2875E2;strokeColor=#ffffff;points=[[0.005,0.63,0],[0.1,0.2,0],[0.9,0.2,0],[0.5,0,0],[0.995,0.63,0],[0.72,0.99,0],[0.5,1,0],[0.28,0.99,0]];verticalLabelPosition=bottom;align=center;verticalAlign=top;shape=mxgraph.kubernetes.icon;prIcon=ns" vertex="1" parent="1">
          <mxGeometry x="160" y="300" width="50" height="48" as="geometry" />
        </mxCell>
        <mxCell id="qTTyC-xt6pcrKishkEDp-3" value="" style="shape=image;verticalLabelPosition=bottom;labelBackgroundColor=default;verticalAlign=top;aspect=fixed;imageAspect=0;image=data:image/jpeg,/9j/4AAQSkZJRgABAQEAYABgAAD/2wBDAAMCAgMCAgMDAwMEAwMEBQgFBQQEBQoHBwYIDAoMDAsKCwsNDhIQDQ4RDgsLEBYQERMUFRUVDA8XGBYUGBIUFRT/2wBDAQMEBAUEBQkFBQkUDQsNFBQUFBQUFBQUFBQUFBQUFBQUFBQUFBQUFBQUFBQUFBQUFBQUFBQUFBQUFBQUFBQUFBT/wAARCACAAIEDASIAAhEBAxEB/8QAHwAAAQUBAQEBAQEAAAAAAAAAAAECAwQFBgcICQoL/8QAtRAAAgEDAwIEAwUFBAQAAAF9AQIDAAQRBRIhMUEGE1FhByJxFDKBkaEII0KxwRVS0fAkM2JyggkKFhcYGRolJicoKSo0NTY3ODk6Q0RFRkdISUpTVFVWV1hZWmNkZWZnaGlqc3R1dnd4eXqDhIWGh4iJipKTlJWWl5iZmqKjpKWmp6ipqrKztLW2t7i5usLDxMXGx8jJytLT1NXW19jZ2uHi4+Tl5ufo6erx8vP09fb3+Pn6/8QAHwEAAwEBAQEBAQEBAQAAAAAAAAECAwQFBgcICQoL/8QAtREAAgECBAQDBAcFBAQAAQJ3AAECAxEEBSExBhJBUQdhcRMiMoEIFEKRobHBCSMzUvAVYnLRChYkNOEl8RcYGRomJygpKjU2Nzg5OkNERUZHSElKU1RVVldYWVpjZGVmZ2hpanN0dXZ3eHl6goOEhYaHiImKkpOUlZaXmJmaoqOkpaanqKmqsrO0tba3uLm6wsPExcbHyMnK0tPU1dbX2Nna4uPk5ebn6Onq8vP09fb3+Pn6/9oADAMBAAIRAxEAPwD9MKKKKACiis3XPEuleGrfz9V1G20+Ls1xKEz9M9fwoLhCVSSjBXb7GlRXEWPxs8Dahc+RD4lsvMzgeYxjB/FgBXaQzR3EayROskbDKuhyCPY02mtzathq+HaVam437pr8x9UtU1qy0WDzr25jt07bjy3sB3rC8b+OIfC9v5MO2bUZBlIz0Qf3m/wrxjUdSudWunubuZp5m6sx/Qegr8u4o44w+RzeEwsVUrdf5Y+vd+S+bR7WXZNPGL2tR8sPxfp/mem6j8Y7SJytlYyXA/56SsEH5cn+VZf/AAuW+3c6db4/32rzyivxSvx1xBWnzLEcvkoxt+Kb+9s+vhkuBgrcl/Vs9X034x2kr7b6xktx/wA9IWDj8Rwf512uka9Ya7D5tjcpOo6qOGX6jqK+c6sWGoXOl3SXNrM0Ey9HQ/p9K+hyrxIzLDTUcwSqw6uyjL5Wsn6Na9zhxPD+HqJug+V/ev8AM+k6K5PwL44j8T25guNsWoxjLKOBIP7w/qK6yv6Iy/MMNmmGji8JLmhL+rPs11Pg69CphqjpVVZoKKKK9I5wooooAKKKKAOE+MXxOh+FvhQ3+xZ9QuH8i0gY8M+CSx/2VHJ/Ad6+HfEXibVPFmpSX+r3s19dSHJeVsgewHQD2Fez/tganLP420ixJbybey8xR23O5BP5KK8Fr0KMUo3P6B4QyyjhcvhirfvKmrfl0S/rcK+tP2QY7xvBus3VxczSWrXgigikclUCICxUHgZLYOP7tfJdfavwatT4V+ANpP8AclktZrvP+05Yr/Na58fXjhsPOtPaKbfolcOM6lstjRW85xX6/ocdr1+2qa1e3TMX8yVipY/w5wP0xVCgcDFFfwLWqzr1JVp7ybb9XqeTCKhFRWyCiiisSgooooAs6dqE2l30F3buUmhYMpH8voa+g9D1eLXdJtr6HhJlyV/unoR+BzXznXq/wb1AyadfWZP+pkEij2Yf4g1+veG+bVMNmTy+T9yqm0v70Ve/zSd/l2PluIMNGph1XW8fyf8AwT0Siiiv6aPzsKKKKACimySLFGzuwRFGWZjgADvXyr8YP2mr3Uby40nwnN9m09MxvqC/6yU5wdn91ffqa9fLcrxGaVfZ0Ftu3sjw82zjC5PR9riHq9kt3/XVnq/xi+Bdr8WLy0vV1JtOvrWIwhggdWBORuHXg/zrwrXv2VfGGk7ms3tNViHQxuUb/vk/415np/jTXtJvJLq01i8huJDueRZmy59+ea9A0L9p7xvo2xZbm31KNeq3UeSfbcOa+uq8J42kv3FSMvXT/Mwybxlq4GnGhODUFsmlJferM4fWvhz4n0CTyr7Q72BicBvKLLk9PmGRX2d4wt08L/DGx0pDxHDBZr7hVAP6LXl+h/tgWFwoTXNCeHn5ntm3r9dpr1L4l248Q+ErPU7GbzrWPbcAr9142XhvwB/U1+VcdYPMcBkmJ56Vm4SS9Ov3K7P0qhxxheMK+HjTaXs3d2vu9tHqtrddzyKiiiv4XP0YKKKKACiiigAr0T4M7v7S1PH3fJTP13HH9a4KysZ9Ruo7e2iaaaQ4VFr13w7penfDLQ7jUNZ1GG0EpQTTzuEjTnCqCfc1+m+H+VYvGZzSxVKD9nTbu/NxaSXdu+3Y+dz3FUqOEnTnLWX+e529FRWt3BfW6T200c8Eg3JJGwZWHqCKlr+rNtGfmm+qCiiikB4p+1N4+m8LeC4NIs5DHeaw7Rs6nlYFA8z89yj8TXx1Xv8A+2I8jeMNDVs+WtkxX05c5/lXgFfufDOHhRy2nKK1ldv77fkfzhxfiqmIzepGT0hZL7k397bCiiivqj4sK+uv2XfGkfizwReeGb5hLcaaNio3O63cED8juH5V8yeCfA+q+Ptch0zSrdpZGOXkI+SJe7Mewr6x0vS/Cf7M/g17i5nE2o3C4eQ/626kAztUdl/lXwfFlbC1ML9TqLmqS2X538mro/ReD6eJwuJeZOShQgnzSei9F53s/wDhzl/EOg3Hh/U57aZGEaOQkhHDL2OfpWZXY+Ef2kPB/jmNbLWo10q5kO0JdDdGSemG7V0eq/C2w1SL7Xot2qK43KobfG3fgiv4R4g8M8wwU5Vcv9+F2+V6SS7LpK3qmf1XknGWW5vSUqdRPzX6rdfNHldFauseGdS0KRlu7V0Uf8tFGVP41lV+OYjD1sLUdKvBxkujVmfewqQqR5oO6CrukaPda5epa2cZklbr6KPUntVrw34ZvPE16IbZCIwf3kxHyoP8a6z4hfEjwp+zj4R867fz9QlB8i0Qjz7p/U+i+/QV+hcH8E4zijERfK1Rvut5eUf1eyPns5zzD5TSlKcldfcvX/LqaGrap4Y+A3hK41rW7tEdVwX6yTN2SNa+Avjv+0Frnxs1omdmsdBhbNrpqN8q/wC0/wDeaue+K3xc8QfGDxE+q65cZVci3tIyRFbpnhVH9epriq/0P4X4RwfDuHhCEEpLa20fTu+73Z/JPEfFGIzqpKMG1T/GXr5dkeyfAf8AaU1/4O6xDDNPNqfhuRgLjT5HzsGeXjz91v0NfpN4c8Q2HizQbHWNLuFutPvYlmhlX+JSP59iPUV+Otfcv/BP7x1NqPhvX/ClxKZBp0q3dsrH7scmQyj2DLn/AIFWHFeU0pUXj6StJfF5p6X9Uehwlm9VV1gKzvF/D5Na29LH1tRRRX5Kfrp88/tfeEZr7RNI8Q28ZcWLtb3G0chHwVb6BgR/wKvlWv0l1bSrXXNNubC9hWe0uEMckbdCDXxH8WPgjrHw31GaWKGW+0NjuivEXO0E8K+OhH61+scK5tTlRWBqu0o/D5p629Uz8S40ySrHEPMqMbxl8VujWl/Rr8fU82rr/ht8MdX+JmtLZ6fHstoyDcXbj5Il/qfQVpfCX4Pap8UNUwitaaRCf9IvmXj/AHV9Wr6J8bfEHwz+z34Xj0TRYIpNV8vMVoD8xJ48yU/UH64r185zxYN/VsL71Z/dH1/y+8+ZynJadSi8xzOXs8NHr1l5L+vJeU2p6t4S/Zp8Gi2to1m1GUZEQI865c/xN6Lx+lfJXjjx1qvxA12XVNWnMkjEiOIH5Il7Ko7D+dUvEniTUfF2s3GqarctdXk7ZZ26AdlA7AelZlfD0aDjJ1ar5py3bPmOIeJKmbtYbDx9nh4fDBfm/P8AL8QrrvBXxV8S+Ap1bS9SlWDI3Wsp3xMPTB6fhXI0V0yhGa5ZK6PksPiq+EqKrh5uMl1Tsz608E/tWaHr4Wy8TWf9myOMGcDfCx9+4r0GTwL4b8XwpfaPdxrG5BLWrhlP4djXwVXY/Cv4iXfw38WWWoRyyGw3hbq3DHa8ZwGOP7wHI+lfH5xwvl2bU+WvSUrd1+T3X3n7Rw54m5hgasKWOd4t2clo15tbO3omfSfxu+O3h/8AZ38OrplhCl14gmj3W1iD0zkebIfTIP1xX55+NfG+s/ELxBc6zrt7JfX07E7nPyovZVHZR6V9lftw/C+Hxd4O074g6OqzzWESpcyRDPm2rnKv/wABZvyY+lfC9fqfB+BwGGwEZYWCUlo/K3RdkepxfjcZWxrpVpe5vHs79X3YUUUV96fBBX1T/wAE+beV/iL4knUHyI9MCOe25pVK/wDoLV8rV+h37EPwxm8FfDObXL+ExX+vyLOqMMMtuoxHn65ZvoRXynE+IhQy2cZbzsl99/yPruFsNOvmcJR2hdv7rfmfRtFFFfhR+9BTJoI7qF4po1licYZHGQR7in0UBvozx741fE+2+Cvh2z0zQrCKG+vRIbdUQCKEAjc5Hc5bgV8a6nql3rV9Ne31xJd3UzF5JZWyzEnNe/8A7Zmf+Ei8Nen2WX/0MV87V9hl8EqKqfaluz+VuO8fiK+b1MHKX7ulZRitleKf3hRRRXpn5wFFFFABRRRQB9efsy6wfHfwu1Tw7rEH2qysybLMnIkgkQ/J+AyPoRXnnib/AIJ+6ReK8nh7xJNanPyx3UYkX6bhz+lemfs02qeGfgjdatIdouJbm9ZvRUGz/wBp5/GvIdP8aa7pczS2mq3UBYklVkJUZOeh4r8oz3jifCGMUaKbVRu6Vuluj3vd9j+rcpwNDGZJg1mEOeXIrPqk9tfSx5n4n/Yi+I2glmtILPWoh0azlwT/AMBbBryvWvhP4x8PX0dpqHhvUbeeV/LjU27He3YAgc19paT+0B4m09h9p+z38fcSJtP5j/CvWfhl8WofiFdXFlJY/YryCLztoferLuAJB9sj86+gyXxfw+Y1Y4dq85bJpxb+aujGpwlgKz/cVJQf3/1958u/s9fsY3+qXtp4g8dwfY9NjZZYdJb/AFk5BziQfwr6jqa+4oYUt4kiiRY40AVUUYAA6ACn0V1ZlmmIzSr7Su9tl0R9lluV4fKqXsqC33b3YUUUV5J64UUUUAfOv7Y/h1rjQNC1tFJ+y3D2smOyyLuBP4pj/gQr5Ur9GPHHhO28ceFNS0S6wI7uIqr4+445VvwIBr89/EGg3vhjWbvS9Rga3vLWQxyIw7juPUEcg9wRX1OV1lKl7N7r8j+a/EbKp4bMVmEV7lVK/wDiSt+Ktb5mfRRRXtH5GFFFFABSUta3hPw/N4q8TaXpECO73lwkJ8sZKqWG5voBk/hUtqKuzWlTlWqRpQV3JpL1Z9ha5F/whf7O1rYg7ZW0+C2OBjJk278/gWr50r6P/aKW6/4RCxgtbeR7f7SGmaNSVRVU4zjpyf0r5wr+NPEDESrZxyvaMV+Lbf5n9nypKhCFCO0UkvkFeu/s12csni7UrsL+5isTEzf7TSIQPyRq8y0XQdQ8RX0dpp1rJdTucBY1JA9yew9zX1X8M/AcXgHw8toWWa9mbzbmZRwW7AewHH5nvXPwVlNfGZjDF8tqdPVvu+iX5vy+Rth4OU+bojraKKK/pI9YKKKKACiiigAryb46fA+D4nWS39gY7bxDbptjkbhZ1HIR/Tvg+/PHT1mitadSVGSnB6nnZhl+HzTDSwuKjzQl/V12aPzb8QeHdS8LapLp+q2ctjeR/eilGD9R6j3FZ1fov4u8C6F46sRa63p0N9Gv3GYYdP8AdYcj8DXiPiT9jnT7iZ5dD16ayQkkW95EJQPYOCCAPcE+9fSUczpSVqmj/A/nvNvDrMcNNyy9qrDorpSXreyfyfyPlaivoX/hjfXPNA/t/T/Lxkt5b5+mK6Pw7+xvp9vMsmt6/PeIMHyLOERD8XYtkfgK6ZZhh4q/MfP0eB8+rT5fq/L5uUUvz/I+ZtD0HUPEupw6fpdnLe3kx2pFCuT9T6AdyeBX2Z8DPgbb/DGzOoah5d14huE2vIvK26nqiH19T7ccde88I+BdC8C2JtdE06GyRvvuoy7/AO8x5P4mt6vDxePlXXJBWj+Z+zcM8EUMlmsXipKpWW38sfTu/P7kIyrIpVlDKRggjINc1efDTwtfXHnTaHZmTOcqmwH6gYBrpqK8CthqGJSVeClbuk/zP05pPcp6bo1hosPlWFnBZx/3YYwo/SrlFFbQhGnFRgrJdhhRRRVgFFFFAH//2Q==;" vertex="1" parent="1">
          <mxGeometry x="920.69" y="570" width="78.61" height="78" as="geometry" />
        </mxCell>
        <mxCell id="qTTyC-xt6pcrKishkEDp-4" value="" style="shape=image;verticalLabelPosition=bottom;labelBackgroundColor=default;verticalAlign=top;aspect=fixed;imageAspect=0;image=data:image/png,iVBORw0KGgoAAAANSUhEUgAAAOEAAADhCAMAAAAJbSJIAAABKVBMVEX///9DmTRFpThAlDNGoDdPqkFXrkdKpzxgsk+Uel7+/f1QOCxSq0T8+/uUeFqTel708u+6qJbu6uafgmRPNihPNyxPNSdZrkrg3NqGd3BGKhpFpzjz8O3l4uBQOi1DJhHDvLlZQTT2+vXCwaeZgWaznojOycZtWU/Jw8DUyb5JMCChl5LR5c7j8eFLoD3y+PGsqovMy7SpknqyqaXN5shosVy3tpnc28jIu6+9rp7Yz8WRhH5fSDtrVkuek42Fdm53Zl6727SczJNzvmOQw4ip1KKGwX07oydxv2G0161/wnPD379Vs0Ok0Z2m1KB0uWlapE52sW2HuYB8s3Q6qClQnEQ0lSNpqVddm018qmaSrHhvnlugrIKDomp6qmNlq1qtupY2DAA+HAEdo0aAAAAR8klEQVR4nO2dCVvbRhrHbcc2IFlghCzLh2SLgA8ZA0UkwUg+QhIIR0rabmi3m+7B9/8Q+87oGp12uqHWePm3eR6ERvL89L7zHiOnzWSe9axnPWvVtLu77Bk8tU5Plz2Dp9bbixU34u7F+sGy5/C0Gr5rvF9tI34oVgsrbcTT9fX1xiWz7Gk8nYYfgTCfW10jDu+LQHiYe7XsiTyVDt4hwPV8/urtsqfyNDr9iAHXD/P5w+GyJ/MUOrUsiAkblyuYMW5tC2LC/NrqVTYeICbMlz6sGOLtx3VXpTxGvF4pRBLQsiE46vWyZ/Ud5QN0CPON1UE89QG6hKuTFoc3RR9hySHMP9wue27fRbsXd3GE+epKNPzXd0U/YdUjzL1agSL8dL1YLFZjCPO5e+rrt6N3BSAsxhFC/Xa07Cn+j7q5qyYS5huf6O6Hf7QAfYh+Qspzxi0swuocwlyD4qUIPb2jeMJ84xW1FerRexeQjKalfBDxYtkz/bNCPhphxBBhvkBpbTO8KVSjjBgmpDMrMpm3DZKwmECYz1HZ8h99vEOE1RBhMNJQ66c/NkqFYjXChlGENPrpsFgoFSIXYhRhvkHfvs1lo+QnLCYS5qq0GXF4V0CKctNIQijBlz3lb9RlAxNGuWk0Yb5BVzd8WiyECItzCKl6X7N7Y5uwUAq7aQxh/oqmjPH2rlCINWIcYY6iCvzocs0jDBkxjjC/Rk+neLBecgnDbhpLmLunZkfjGufCODeNJcyXaFmJQ4gzxT9DmKNlW+qgsLaW4KYJhJR8m2j3UwMIS1GExWTC/MMnKsLpcB0I1zw3LS5OSIkRbxFgjnBTgrCaTJjP0ZAwdi8RYYKbJhLeUBBrhgVM6LhpKeSmSYT5PAVu+uEKA8ZE0+ocwisKNvk/WiZcK8S5aSJhbj310fTgqrAWNOI3EOavUu+mF38rOYQuYtHvpomE6e/17xsOYSHOiDFsh/lDUPZw2QRzNCw11iLctJpIeGgri/SQ8t2M27tcrhBy01IcoY/NUu79shmSddHwCJGblsJuWiXYshH6nO5oegOEjpvGLMRqHJqtfKrddPgq5xHGJf0kPOSmn5ZNkaTTIhD63DRsxHmE2Z+WTZGk67tcLtpNq4sTfk7zBv+nRi7gpqWQm84lrKZ4uwY6p9xcN51LmP+wbI54De9twqSkP5cw+3N688XBR4swMZrOJ/wpvQvxdD2Xi3HTbyDMp/gbi2/vGjm/m0bsm8634WF6Q811wyZcS6hN5xPm0/sN8E9XufluOp8wvdumR+8bLmF8NJ1PmP05rTtuR5cuYS7c6ZcWJ/wlrcF0eBMmDLvpAuswtd+uGb7zCKPcdGHCV2kldBK+L9aENqQWIUxrQjyoRhCGatMFCFP7guagSBDGbkgtEGkO00p4WogkDMYamgkbBCHppiWfm84FpIUwbkOqRDNhIYow6KarQxgXTWkm9MXS2A2pKs2E65GEgU6f5mzhq2li3ZRmQrIujatNq4sQVlNLeO8njHbTBaq2z6klvPETRnf6NPcWZAfsI/R9Q4rm/nD3IkAYlfQXIUzvhul1gDDKTanep8m8XQsShvdNi+sU77VlTteDRgxvSBWo3i89eBdHSCT9Es173qFgGpX051be+fUUv8kPBtOoDanCPMLsv1IbSp233DHRtLQo4S+pDaWouwgShiu3+f1hmr+McXQ/302TIs2L7IsXL76kN9CA3jdCKTHopjGEL1yleRmid6RxblqIs+HhC7+yvywbIlFHpaCbkrVpyU/4IlL5NC9D0M1Vgps6NjwM2o1UivM91tu/BQmDblpKwkOBJrVFqaXdxjw3rX5JBEz5MgRdznPTUrIJH1L/12ZOr3JBIzpaiDCb4oLG0m6ovwh8kS95Gab7u5eWrkNG9LtpNdlJ07rNRmhYjW2hinMJs/9KvZNmmN2LoBHXSuRCTPTSh/S294QOwkYk3TSJMN3fD3Z1FOqDfZ1+ImF696B8OkjckEogzH6hIM4g7b5PcNOkoi37Pv1xxlKo1SdTYgJhuntfn2KNCG4aT5jive6QhiU/YINw03jCtPdNPn0INFFEgxFLmP6uwqdgOHUJi7GEqX23Ha3TRsw7/Woc4cPPy57zN4nJBGo3100LcT56SE+YsRR8qT+PMP2db0in/u8POZVbDOHDT3TUa6SYD1dRbhq9DLNU/m9Lji6vIgh/jdyIAh9N/38uIiz/d6Rswn/+FmVCagrSgG7vGkEjFv4eQZjmv602R+RStAhLf4QJs6n9DtR87ZJL0SL8/R/h9xX0JQpPR/ceIs4X1a9/hKIMff91VlJDL9ogN82FCR9+oTGKEiK+OIwIP3/9PQB4T7UFkbxdG3DT3K/HX30JMUthLROS902p0lrj1+Pj33yAlCZCv26dDVRw038eH/9jJRKhX7cF92+x/3F8/Ed25QC9frhU+v34+OsKAkK4seq3QvXr8fHr3ywjPlDwFuYbZCcNCDTHL78+WIArEEVJ4Z6/AYHm9euXX7KonVj2jL67hpewGH9HhK///SX7meZaNE5HF43DY2zDH/79M73dRJJ2r3/FJnz58ofysufyVPrBJnyz7Ik8mZrYSV++XFkTZrjXlpMuex5PJ+bNijtpJsNjE/LLnsYTavUJyxBmVpzwBwBc3WwI4t4gwhUruX1iMCHlm2vJkgFwhdMhiAfCVU6H/xeEALjahOU3q0/45pmQcpXBSd+sdD7cBUB+lWsaUJk/4pY9h6cWt9Je+qxnzXdwhv41sADkXzCL76Dy/uYe6ARrz9LJdp/nSAI5YkSTDkQmc76zs+loB8n++QQQbAKGO/MGeT+NqNgHYjL8eX90soG0t32GNNo/2djc2ADGcyehMjIM2nPGjLb38QUwgA4jgvh9NOP9pvWrstTf38SMoyYxsr8DY06Q3ZimNNpDA07kv37C3y6MeLazsbW57fHw/ZNNZKXtprfWeAS1b3smd4ateEZN2dTf2dpwCVEeYCQLceQhNIFw0yZkMtz2pmNSKtTHNiT2V2F9IsTNnb5rRLDhlkMIktDpPekvnuif1jlpQ1uWFb2l1oRQ4xKCEbGbUkZY9odG5Lpoqdm/bZI2ZDIMiq1PZsNQkF4wascOO9/ZCBIymfIJTgmOX5Lr0LLh1mbEOrTuUZZwjGpKnY7Eub/rdDrBC9Cal+H3HSkUl2U8mJN67bb/MnQ7dOeOxNsztq3A2B8JZ4JvNCII4T5nyIgb51GEsCxjY2lZ6umTbhuGtI2uac4GMn5e6EAdG73AJeXOYDo2VbM71QmHaErtQW0M9+hMZqommrWO7yJJN2amaXZregeKL07SnZgvoxOqOp4Z7bLPoNGE/Cayk0PBO4QM/vfMx+upM6nNTEETe5neFObGsoI4A8SOYcKBIoim7kOUjHFLHJtaXRTFrm5FAq5t1LqmpoltTu+iW7CsNu558yrrM1GdTscaXDOeGobRHVsTgRNCyxwrLVHQ1JpvBUWuw0wGmLwQi2OpG43O9zYRYNjvJ/+pw5wUQdfVljoW6jA9ccoNzHoL/hEAWCHMweljsT7gm7w0YcWKwE7w7fnZI7qMNQeG0Gq16mKlwgpdd8K8odQNvlxu6gKrKKIGmlknZkp92uGbcrtbV1it2yGmF2VDOL2PMsK+TYi8dONE4ptlnj+HmmavH7mJwMiGih67IBgdjuF0EaYhmpo6kJp829RgSjPvc3R4GjZwRxUrbH2A79kE8ApirHd1SWrX4B4VcWJfUzY0cWwtxjaAAGTdxGuYB7Mb1mSbBnyQ1iWsGEM4wvmi6RJu4dIUgigu4KS4gkbqCoows2/fUZCTTeyxM4BvSc79O4+spjPoFMQICT0W0TGwzlbYitm2DtpqhcW+jg80pd7GgExmKipijbdclIN7wxjrRNkQAdHwZhhDeIYI91wbIr4du/9AZeveWdQ7WFi/NVERelaPzJUnGtgzY3+yrApKXbe9hzMFdiy5lw3ANS0jMGhgBejxjzDYECrs2IJvGiKrNe1LwIhCV7Z+1lVWmLizkGawIkx38eKqOoLwHNvQXYcod5z1+/2zs+0ThAsrUY5yVBkIRXcR9AQwjXOqjE4ZNm6vxYIF3E8rm8Ch2vOVgJBtO5e1VZZVrSO5K7CqYxsZCMeWbXmwp+lekMkMWFiKA9eIMYR93EAQkcbtP3hoPza2cLYMM8o1jXXdLSOZ4JjOATeAU1P7AIZpA9cNmAxYm63bk5RUcFN3wh24B6u7txOci8qCotiEnbEimMTCk8BBxJqbZGMIz8hIw5NVGxxuW91HhBHBhqzgEY4FtuU8S06vw4qynwqEE1iG3nUd5KYD66SkCj5CiKYOoeCu5EwZloO9PpGTjonnzXVFLxjEEGZwpHHbCx8hg0oejBjRIuJ16BGCW7XspwSxFfxqZh00AULTyScjVBwXBkLIHi4hGK5iE8pjYiVLLbY+saY90CpCl6ys4TErY3cWMYQn4JebfXtXLWBDBncXUNaE3ZT323AmKCSha0MnmLhqIseaOoRgNYJQdAjRehPG9hR0jVWtD+ImGvyaJJzAJEjCcMa3Ss+NPcdI/N6W1wEjQd0KV+3/L4QVIhYAYVeEpWNfBScdQniYZsUhZCBbQN60zqiCZmVQtMAVhVyHYFSFKBOibejPIWBDsj+E2W7jZRrkswhFkjDkpfiWEDsVL5YiQsho3jpkfV4K1tWduwsKK07kZlOe1pWJYzZdVFgiliL7htehvz/MZBDB3nmGIPTZ0CLcjrDhFGcLj9BnQ8WNNGAyLx8iwrFQqdsprIOSvOvCMkGYkaDGUTRzOlXrM90NxSihKANiFhMRUr6L1A93wOAaez5sOWBDmzBiHcpTnw2DkcYlRNlBbBO7skBsyi5hhSAcCyQvFNhQwkNnQTyeDhRS4oyYHsq83iqPsmF529qmcGYgB22Ig+lmREJMJnSDSabTQlW596m9OkRGu9gNEooEIXo2tR50h77p1vxuygGxF2jChIy9m9b3Xk+ECKUYJw0SjiHjO5tc2IY2IQMJERkxw9kfaWis6VzWAadzAi2DCb2wK0/GOKYwDPnyBBIiK0zdDh2KBGHihTG8YUFkAgDsIx/tu0MYREhs28CtoarZ3AunQ4aRIbYAIWfVZnbGtyIeY9vQLtseYVKshO/GZWRNqNvNI+cQWrUt9lJcpaKjNlhHJQxqU5ZnUGyLE87uXw1BG8ve44duHmW+jPtKiRuhsvOcvI2EGgr8K2sIlAObO+cRJsz0UGHlLnqoS9lWzx4HbQ0rqG4tCmm6UmlZnYKsatrEDRwD1JG4gaINNY1ml2DSDNIFLMOZMdB7UtNr4SQV5RErOHMDQSNzB945RC4nI8MzHH8G/e2Gv+ZkRnjI3jmHh0gn6N1GxEZUU6+h/lAQcBzg4Qi1vcJU59HRTIMjEc7ZHc8AxgrQBfbaE7FuOslRnnRxfyh0jTa64xTdg9XUKTIjN4AFhxhFrQ7tsTnTnQfWMQUIsoLR7umzujJz3avc396AKnprCzdE+9vb+4AHP/Q5D7B5tr2HH8IWMeRkFEwvuKF5FFkVqwU158A5ElWY66AlWKdUp6/h2miro956fNTGhrt02491Dav+aIJtxJZmH+L6ljdUhKgo6A88vNbM8UbJ6Apo1GNL9fIIaiCC2jnZH52TrR83ihhyJkdu+sk6qI2FtmecI12X0QaSc6rtrnm5PahNp7WJ3vHCgjRw1UaWnzhHuu0miljXEIuG9jGU+tQxBtfRjel0agzaXnxguPPRaLTtaTQ665/zDDl7huuPiEEja8h3ew3MybLM48bX+xUS48RKzpV1tqyLM+uxGTMBcqpbXqDRZbhbk/NNDl1ZJmTHbn+N6hvEce79liHe0Go8ngLXlDszjVWEQWjQnMktYpylvTqUp9rMSa/wR5pC/TlJvIIyyWNNlMjn21ajbEivylON9TW6md4YtWo0vI1eTE2oJsa+grRtimNqXtQuIOiwFLHnRQooAAQoilZIHCr7cOvOWJupnXHLWB0XReqgzeyu8wYLyvCWQc2r9sVUnrTQi5DpoN3rtAczVRuEa0fKVZ6IogDlKNSkrFjvduZfQZ86xthUFQXq91qPjq+efZtQGOV7qKLvUfGFpWdFi7E3ep71rGf59F/gRpLnslsokAAAAABJRU5ErkJggg==;" vertex="1" parent="1">
          <mxGeometry x="920" y="710" width="80" height="80" as="geometry" />
        </mxCell>
        <mxCell id="qTTyC-xt6pcrKishkEDp-5" value="" style="shape=image;verticalLabelPosition=bottom;labelBackgroundColor=default;verticalAlign=top;aspect=fixed;imageAspect=0;image=data:image/jpeg,/9j/4AAQSkZJRgABAQAAAQABAAD/2wCEAAkGBxISEhEQExMWFhUXFhUaGRYSGBgWEBcTGxcXGBgXGRgdHSkgHR4nHxcWJTEhJysrLy4uFx8zODMsQygtLisBCgoKDg0OFxAQGzAdHx03MDctLS4tMDctNysvLy0uLSsrKy4tLS0yKzAtLS0tLS03NS0tKy4tLS0tKystLS0tLf/AABEIAMgAyAMBIgACEQEDEQH/xAAbAAEAAgMBAQAAAAAAAAAAAAAABQYBAwQCB//EAEIQAAEDAgMEBggDBgQHAAAAAAEAAgMEEQUSIQYxQVEHEzJhcZEiQlJigaGxwRRy8CMzgpLR4RVTovEWJDRDY3Oy/8QAGgEBAAMBAQEAAAAAAAAAAAAAAAEDBAIFBv/EAC8RAAIBAgQFAwMDBQAAAAAAAAABAgMRBBIhMRMiQVFhMnHRBYHBFEKxM1JykaH/2gAMAwEAAhEDEQA/APuKIiAIiIAsJdLoBdLqMxLG4YdCbu9lurv7KOp56mq1a4Qx9xBkP61QE3VV0cfacB3b3eS5m1ksn7qOw9uXQeOXevVFhMUeoGZ3Fz/ScpAICPgc9smR782ZtxpYAg8FIqOxTQxyey7XwK72G4CA9IiIAiIgCIiAIiIAiIgCIiAIiIAiIgCIiA8lUnHtpXve6Cn4OLXOb2i69so5a6K7FfN9tNnqinldiVETe+aSO2YX4va36qG7FlKmpyy3syw4fsq0RnrCTI7j7Lt/xSioonOMUjerlbxYbB3vBVTCukiqLOskpOtYNC+AkEeI1su6fb2hnAJ6yKRu4ubf4ejdQqkWXSwVaN+W/sW1uEvb2JneDrr21lS3i1yj8F2upZQG9ezMOZtfzUvJiDbegQ8+6bhSpJ7GeVOUd1Y0zTSFrmvj+I4LowyW7cvEfReIoXv9J5sODQkjcj8w3FSckgi8tKzdAZRYWUAREQBERAEREAREQBERAEREAREQGF4IWxYKA+dbR7OTUkrsQoNDqZYR2HDeSG8b8vJMRNNidBLPFG0TsbciwEjXN1y3GtnAFfQiF892nwt1BP8A4jTN/ZuNp4h2SCbF1v1Y/FVSjb2PQw9Zzai3zLZ9/DNOG7C0NZTxVEZkjL2i4aczQ7c4WcOa0SdGlRHrT1VuV8zD5tJXf0Z1rWvq6RrrsDusi/8AW7+mnmuvaPbMiT8JRt62cnLcasafvbyC4Sg43NLni41pU4u6317eblVxF2LUIBfUaXAAzh7ndwa4ZivUO3OJDOHxNkDTZ143At7jYq47ObJ5Hfiqp5mqDrd2rWdzQuaGTqMYkj9Wpha63DrG6A+QPkmSW97HaxFGeaLgptK97W23sQ9H0oltmy0x/gdY+RCmaTpLondsSR/mbcebbq01GGQSA54o3fmaCoOu2GoH3JhDO9jiwD52XdprZmRVcFP1QcfZnfQ7VUU1gyojJPBxyu8nWKmI5WuFwQRzBuF8T2iwOiY/qqaaWaU7o2Na8X73ALloMGxBkr4IS9ssbGvcyOS1gd3HLdc8WS0aL39NoyjmhO3+SsfeLrN18Zj2zxSkOWdpcP8AzsIP843+KseE9KdO+wnjdEfab6cfy1+S7VSJlqfT60Vdcy8H0O6BR+GYvBUNzQysePdNyPEbwu8KxamJpp2Z6RYusoQEREAREQBERAEREAREQGFoqYGva5jhdrgQQeIOi3ryUF7anwjF6aWgqZoo3FuhaHDQmJ/6+Ss+wOMYfTM9JxbM7tPkacv5WuGgC6OlSgbnpqgi4vkf3tvm+zvNd1X0cU0gDonvjJF9Tnb81jUJRm8vQ+nqYrD1sNT4zcc27XjuXCjro5QHRva8c2kEKl7XuyYphz+Zyn4ut91AYhsVWU2aSN2YDXNE7I8DvBUFV4jNK6N75C5zOy71hr/ZKldpWktSvB/TIOTnRqKSs151R9U2l2wgowWk55baRtO78x4KsU9HiOKnNM4wU9+yLjMOQbvPi7yUdsUKAPz1TiZb3HWj9iDff3nvcvrED2loLSCOBbqLfBWQfE1b+xjxCjguSEby/ua/hEXguBU1Ew9UwCw9J51eeZLlX+jx/Xz4hW8HyBrfyt/sWrp6Ssa6imMLTZ812i28M9Y/b4qR2Iw38NRxMOjiM7vzO11/XBd/usuhRzLDyqT1c3b7LcnJYmuBa5oI5EXFlV8X6P6Ge7gwxOPrRHL/AKdy7MW2xo6e4fKHOHqR+m75aBVl/SBUVDiyio3P96S5HkNB5qZOPUro0cSuaN4rvsiBxTo5raZ3W0r+stuLD1c4+evwKzhHSNWUr+pq2GQNsDmGSob9nfrVWNmB4xUm9RVinYfUgAzW8R/UqsYxs1A6sgw+F8ksxcHTTSPLi1m8gDde3loOK4s1qtDdGpCpy1rSt1XyfT8A2kpqxuaGQEjtMOkjfEH6qYuvje0HR/U0bvxNG9z2t1GQ2qGeXaH6sp3YrpFbKW09XZkmgbL2WOPJw9U/JWKfRmKphU456LzL/qPpIWV4aV6uuzEZREQBERAEREAREQBYWVgoCn9J8WakB5SNP1H3U+yrZHA2R7g1oY0knwUF0kSWpA32pGD5k/ZRFNBNibm3vHSssANxcRy5nf4KhytN23PTp0c+Gg5O0U3d/wCtvJ5rauoxSTqoQWU7TqT9Xcz7vguHZ7AopayWG2aKMOBJ3kiwB87q8YpLHR0ruraGhos0Di86D7KJ2Gp2wU76iRwb1hvc6eiP66lcSheSzal8MVKNCbprKtl3v1fuROO9HhF30zs3uPtf+F39VVqPFKygeWguZY6xyA5D8PuFdca25ueqpWlx3B5BP8reKouMid8v7YudKbaHtC+5thoPBUVcqd6e56eA49SOTFWcbddzxjOOSVNS2oewG2TLHqW2G5vfrr5KxQ4RiuIazPMUR4H0G27oxqf4lGYzsZU08bZgM4sC7J243eHIcwrFsLtvmLaapdroGSn1vdf3967pp5rT6k4uUeCp4RKSjp3a9kS2DdHdHDZzwZn85Ox/INPNWyGBrGhrWhoG4NFgFsBUdjmMR0sL55DoNw4udwaO8rYkorQ+XnVq15czbbIrbnadtFCbEGZ9wxp4e8e4KL6McAdHG+tmuZp9bu7QZe+ve46+Sr+zGES4pVOrqkfsmu0aey6x0Y33RxX1ljbCwXMeZ5uhor5aEOFF8z3+D1ZUjbXYCKrDpoQI599xoyT8w5+8ruhK7aTWpkpVZU3mifMdg9q5YJf8NrrteDljc/f3MceIPqlfTmlVjbXZaGtiNyGTNHoSbiDydzb9FzbAY++Vr6So0qYLNdxzt4PB4rmOjsaKqjUjxIq3dfkuaIi7MgREQBERAEREAXklZWmeVrWuc42ABJJ3ABAlcofSPM6SSCmjBc4Bzy0anu+QK4dmNrHwZYZRmiGm6z2a/MLv2XnbLNVYnMQ2MEsYXcG/7W8yoLaXFIqmYGGK2ts250h3blhm2nnT1Z9Jh4RnH9LON1FavsyR20xls8jY2HNG3W43Oef1b4rZRYHVVmV0pMcQtlB0sPdZ9yvOwMcfXvjkjHWAXbm3tsfSFufFXzEq9kEbpXmzWj49wHeu4Rzpzk9DPia/6dqhRjqtn79it4mKbDISY2gyuFml2rieZ5ALh2F2ec55rpxck3YHb78Xn7Lxg+HSYhOayoFogfQZwIHDw581e5Z2Rtu5zWNHtENaB8V3CCk82yW3yUVq0qUHTTzTl6n+EbHN/XBULbPYQS5p6YBsm90Y0a/jccipTE9v6KK4a4yu5Ri4v+Y6KrVvSRUSHJTwhpO7fI8/AafVdVJQasxgsNjISzwWX30RMbCbV5mPpqo5ZIQTeTQljd+a/EfMaqv4liEeJVHWVEzYaOI2aHOtI/mcu+558AuP/hjEq2QzSR2JGr5bRi35QLqdw3oqGhnnJ92IW/1H+i4Wdq1jZUhhaM5Tz2k+2tu9jvk6Q8Pp2COFr3Bos0Mblbbhq7goqTpOqZTlpaMuO7XM8+TQrbhuwtBDqIA885fT+R0Vghp2sGVrQ0cmiwHkrUp9WeZKrho+mLl5bPmsM+0VRuDIAeJDG2HxzFdkew+Iy/8AU4lJrvbFf+oHyX0MBelOTyVPFS/akvsUml6NKQayvnmPHrJXAeTbKdwrZmkpnB8MDGOtbOBd9vzHVTKLpJIqlWnLdmURFJWEREAREQBEusEoDF18+6TsfytFFGfTfbPl1IYdzfFysm1OPMpIS8+lI7SNg3ufw05KmwOjof8AmKgdfiExu2Mek5hduHdw+yqqO6sj0cBSSkqslfsu7+F1OKakMcMb6u7I2j9jSNNnvd7T+VydT3+dm2O2dIP4udoDz2IwNI27hpwK4aGmjhf+PxOVvXHVkRNxGOADBfXdzstWJ9JJJyUsRJ9p+pPDRg187KlKEXeRuqcesnCktHu9l7L8vqd20MLafEKWpBAa8kPPC4BufL6KIxjaKGomzSl3URk5ImdqR3tO4ALXFgOJV5D5yWt4GXQD8rArFhOwVMw/tbyuHtaM/lCjnl6VZEuWGoRXFnmmlbl+e/QgKjbOqm/ZUsWQbgI253gfQcFri2Lr6oh9Q/Lf/MdmcP4RovpdNStiGVjGtb7osupqsVG/qdzI/qSp/wBCCj53ZScN6OqWMjrS6U6do5WeQVsocLhhFoo2MHugBbX9ryXQFbGEY7Iw1cVWq+uTZ5DVnKsrK7KDFkssogMLKIgCIiAIiIAiIgCLBWLoASozHcYipYnTSmwG4es53st715x7G4aSJ00rrDgB23u4NaOK+N4hW1eK1F2sJF7MY393GO8nS/eq5ztotzbg8JxXmnpFbs9V21MsszqogdZujzashb7o4u71jCKipe934ZjnzO7UxGaTXfZx0YO/f3q57P8ARlGyz6p+d3+WzSO/ed5+SuT4Y4IxHE0MHJgsLKmNKb1kz06/1HD01kpRv/BQMI6PXykyVUxvvLWnM8nvefsrvgWB00Df2UTWncXEXf8AzFSdHFZo5nVeJBkdf1TvV0aUY7HlV8dWrK0np2Wx1haITdzlta8WvwWmj4nvVhkOleDHxGn0R8oG9eLF3cPmgNcjtQuoLlmFiAuoIDKIiAIiIAiIgCIiAIiIAiLCAwVDY9jjKcABpklf2IY9ZHn7N946LbimI5S2GP0pXbm8G+87kFnC8JbFmefTld25Xavd3btB3BCY2vdlSg2MmrJfxWJPufVp4zaNjeDSfrbzU1SU8cc4jja1jGuADWiwVmCrWKXjnzd4coUUiydac0k3ounQsbiACTuUVATLJfgPosYrXAgMad4BP2C3UcjImWLhmOpA1PgpKSTC8uaCLFRz8Tvoxv3WWxSv1cbD9cEJDzlu0G4PyXunLiMo0HNahEM4YNea6303FpsfkgNkUAHeeZW1c7ZiNHD4hb2vB3G6A5pz6QHguoLjd+8+IXYEBlERAEREAREQBERAEREAUZjuKCniLzq46NHNyk18+20qi+obF6rA0Abrudv+wUogsOy1CQw1EmskupJ4N4AKcLwBckAd+igmw1zxbNFA3dZozvt9F6bs01xvNLJKe82b5KAddRjkDbjOHH3NfnuUPieJdaGkMLQDo530U7DhsEYuGNFhvOpt4lQ8d6uUndCw28f7lESctBFncG3AvzU7BhDB2iXfILkxbCv+5GNeLR3cQtmFYtmsyQ67geB7j3qQS0ULW9kALzUS5Gl36utqh8RnzvEbeB+agHRhjL3efAKSXJ1jImgEgWHxWoVjn6MbpzKA7nEcVyktJ9FtzzGgRtITq85u7gttQ4NYeGiA5qPV5KkFw4Y3Rx+C7kAREQBERAEREAREQBERAF832ygLal7uDg1wPwsvpChNpsH/ABEfo/vG6tPPm34qUQb9n8QE8LH39IABw4hw/W9Sd18xwXE30kpuDbc9h0P+4VzxDG29S10JzvkOWMDfmPPwSwNOMVLppBRxeMjh6reSmqKmbGwMaLAfq64MJoWU0ZzOGZxzPe42u7xWmo2ngBysvK7lGCRfx3KCScuojFsOjN35gx3M6NK4/wARWzdlgibzdo5e49n7+lNKXHu3eZQHLS4q9gLLhw4E8PBZw9j3u9F1jxJNitNPA2WbJGLMHHf6PNTc2CxnVt2nu3KSDZTYW1urjmPfuXe1ttFFNiqY9xEg5HQrczEiP3kb299rhQSSKjsWlsA3nqt8VfG7c8eB0KjpXdZOGjcPoEBJ0bMrAPiuhYAWUAREQBERAEREAREQBERAEREBB49s8yoGYehJ7XA9zlSZIqijkvbK4XAcRdhvxBX1FaainbIC17Q5p4OFwpTIsVPBTSVBHWue+X2Z3HLf3QDZWumpWMFmMa0e6AFW8R2MY67oXFh9l2rP6hcMb8RpNCDIwfxi3/0EBeVXtpsQIy08er32uBvty+K5KfbRliJI3NcBuGoJ+oXJgmIQtc6plfnmkOjGAuLRy8UsLlnwagELA3TMdXHvUgoQ19VJ+7pw0e1M4fQLBwyok/e1Fh7MQsFBJKVFbGztPA+q4xi+c2ijc/v7LPNeqbBIWa5cx5vNypBrQBYDTuQEZURPLHPlLQACcrAD8Mx+y8bPw+iZD62g8Ex6Unq4G9p7vIBSkEYa0NHAAIDaiwsoAiIgCIiAIiIAiIgCIiAIiIAiIgCwQiIDlqsOik7cbXd5Gvmomo2Qpnbg5n5XfY3REuDmGysrNYqp7fG/2K2NpMRZuljePe/2RFIN7K2ub2qdru9jgPutzMXl9allH5bORFAM4dE6SV872lotlY1wsQOJsq7i1PWskmfTuncRVROa1zi6N0Ah6yRgB0Ac8Fl+GYIiAmdkHVLmzvqc4c+bOxjxbq4nRxlsY55bkHvurCiIAiIgCIiAIiIAiIgCIiA//9k=;" vertex="1" parent="1">
          <mxGeometry x="905" y="110" width="70" height="70" as="geometry" />
        </mxCell>
        <mxCell id="qTTyC-xt6pcrKishkEDp-8" value="PCF" style="rounded=1;whiteSpace=wrap;html=1;labelPosition=center;verticalLabelPosition=top;align=left;verticalAlign=bottom;fillColor=#fff2cc;strokeColor=#d6b656;" vertex="1" parent="1">
          <mxGeometry x="495" y="60" width="300" height="180" as="geometry" />
        </mxCell>
        <mxCell id="qTTyC-xt6pcrKishkEDp-16" style="edgeStyle=orthogonalEdgeStyle;rounded=0;orthogonalLoop=1;jettySize=auto;html=1;strokeWidth=3;" edge="1" parent="1" source="qTTyC-xt6pcrKishkEDp-11">
          <mxGeometry relative="1" as="geometry">
            <mxPoint x="570" y="140" as="targetPoint" />
            <Array as="points">
              <mxPoint x="365" y="140" />
            </Array>
          </mxGeometry>
        </mxCell>
        <mxCell id="qTTyC-xt6pcrKishkEDp-11" value="Actor" style="shape=umlActor;verticalLabelPosition=bottom;verticalAlign=top;html=1;outlineConnect=0;" vertex="1" parent="1">
          <mxGeometry x="350" y="60" width="30" height="60" as="geometry" />
        </mxCell>
        <mxCell id="qTTyC-xt6pcrKishkEDp-64" style="edgeStyle=orthogonalEdgeStyle;rounded=0;orthogonalLoop=1;jettySize=auto;html=1;exitX=0.5;exitY=1;exitDx=0;exitDy=0;exitPerimeter=0;strokeWidth=3;entryX=0.005;entryY=0.63;entryDx=0;entryDy=0;entryPerimeter=0;" edge="1" parent="1" source="qTTyC-xt6pcrKishkEDp-12" target="qTTyC-xt6pcrKishkEDp-19">
          <mxGeometry relative="1" as="geometry">
            <Array as="points">
              <mxPoint x="305" y="348" />
              <mxPoint x="410" y="348" />
            </Array>
          </mxGeometry>
        </mxCell>
        <mxCell id="qTTyC-xt6pcrKishkEDp-65" style="edgeStyle=orthogonalEdgeStyle;rounded=0;orthogonalLoop=1;jettySize=auto;html=1;exitX=0.5;exitY=1;exitDx=0;exitDy=0;exitPerimeter=0;entryX=0.005;entryY=0.63;entryDx=0;entryDy=0;entryPerimeter=0;strokeWidth=3;" edge="1" parent="1" source="qTTyC-xt6pcrKishkEDp-12" target="qTTyC-xt6pcrKishkEDp-38">
          <mxGeometry relative="1" as="geometry" />
        </mxCell>
        <mxCell id="qTTyC-xt6pcrKishkEDp-66" style="edgeStyle=orthogonalEdgeStyle;rounded=0;orthogonalLoop=1;jettySize=auto;html=1;exitX=0.5;exitY=1;exitDx=0;exitDy=0;exitPerimeter=0;entryX=0.005;entryY=0.63;entryDx=0;entryDy=0;entryPerimeter=0;strokeWidth=3;" edge="1" parent="1" source="qTTyC-xt6pcrKishkEDp-12" target="qTTyC-xt6pcrKishkEDp-41">
          <mxGeometry relative="1" as="geometry" />
        </mxCell>
        <mxCell id="qTTyC-xt6pcrKishkEDp-68" style="edgeStyle=orthogonalEdgeStyle;rounded=0;orthogonalLoop=1;jettySize=auto;html=1;exitX=0.5;exitY=1;exitDx=0;exitDy=0;exitPerimeter=0;entryX=0.005;entryY=0.63;entryDx=0;entryDy=0;entryPerimeter=0;strokeWidth=3;" edge="1" parent="1" source="qTTyC-xt6pcrKishkEDp-12" target="qTTyC-xt6pcrKishkEDp-44">
          <mxGeometry relative="1" as="geometry" />
        </mxCell>
        <mxCell id="qTTyC-xt6pcrKishkEDp-69" style="edgeStyle=orthogonalEdgeStyle;rounded=0;orthogonalLoop=1;jettySize=auto;html=1;exitX=0.5;exitY=1;exitDx=0;exitDy=0;exitPerimeter=0;entryX=0.005;entryY=0.63;entryDx=0;entryDy=0;entryPerimeter=0;strokeWidth=3;" edge="1" parent="1" source="qTTyC-xt6pcrKishkEDp-12" target="qTTyC-xt6pcrKishkEDp-47">
          <mxGeometry relative="1" as="geometry" />
        </mxCell>
        <mxCell id="qTTyC-xt6pcrKishkEDp-70" style="edgeStyle=orthogonalEdgeStyle;rounded=0;orthogonalLoop=1;jettySize=auto;html=1;exitX=0.5;exitY=1;exitDx=0;exitDy=0;exitPerimeter=0;entryX=0.005;entryY=0.63;entryDx=0;entryDy=0;entryPerimeter=0;strokeWidth=3;" edge="1" parent="1" source="qTTyC-xt6pcrKishkEDp-12" target="qTTyC-xt6pcrKishkEDp-50">
          <mxGeometry relative="1" as="geometry" />
        </mxCell>
        <mxCell id="qTTyC-xt6pcrKishkEDp-71" style="edgeStyle=orthogonalEdgeStyle;rounded=0;orthogonalLoop=1;jettySize=auto;html=1;exitX=0.5;exitY=1;exitDx=0;exitDy=0;exitPerimeter=0;entryX=0.005;entryY=0.63;entryDx=0;entryDy=0;entryPerimeter=0;strokeWidth=3;" edge="1" parent="1" source="qTTyC-xt6pcrKishkEDp-12" target="qTTyC-xt6pcrKishkEDp-63">
          <mxGeometry relative="1" as="geometry" />
        </mxCell>
        <mxCell id="qTTyC-xt6pcrKishkEDp-72" style="edgeStyle=orthogonalEdgeStyle;rounded=0;orthogonalLoop=1;jettySize=auto;html=1;exitX=0.5;exitY=1;exitDx=0;exitDy=0;exitPerimeter=0;entryX=0.005;entryY=0.63;entryDx=0;entryDy=0;entryPerimeter=0;strokeWidth=3;" edge="1" parent="1" source="qTTyC-xt6pcrKishkEDp-12" target="qTTyC-xt6pcrKishkEDp-60">
          <mxGeometry relative="1" as="geometry" />
        </mxCell>
        <mxCell id="qTTyC-xt6pcrKishkEDp-73" style="edgeStyle=orthogonalEdgeStyle;rounded=0;orthogonalLoop=1;jettySize=auto;html=1;exitX=0.5;exitY=1;exitDx=0;exitDy=0;exitPerimeter=0;entryX=0.005;entryY=0.63;entryDx=0;entryDy=0;entryPerimeter=0;strokeWidth=3;" edge="1" parent="1" source="qTTyC-xt6pcrKishkEDp-12" target="qTTyC-xt6pcrKishkEDp-56">
          <mxGeometry relative="1" as="geometry" />
        </mxCell>
        <mxCell id="qTTyC-xt6pcrKishkEDp-74" style="edgeStyle=orthogonalEdgeStyle;rounded=0;orthogonalLoop=1;jettySize=auto;html=1;exitX=0.5;exitY=1;exitDx=0;exitDy=0;exitPerimeter=0;entryX=0.005;entryY=0.63;entryDx=0;entryDy=0;entryPerimeter=0;strokeWidth=3;" edge="1" parent="1" source="qTTyC-xt6pcrKishkEDp-12" target="qTTyC-xt6pcrKishkEDp-53">
          <mxGeometry relative="1" as="geometry" />
        </mxCell>
        <mxCell id="qTTyC-xt6pcrKishkEDp-12" value="" style="sketch=0;html=1;dashed=0;whitespace=wrap;fillColor=#2875E2;strokeColor=#ffffff;points=[[0.005,0.63,0],[0.1,0.2,0],[0.9,0.2,0],[0.5,0,0],[0.995,0.63,0],[0.72,0.99,0],[0.5,1,0],[0.28,0.99,0]];verticalLabelPosition=bottom;align=center;verticalAlign=top;shape=mxgraph.kubernetes.icon;prIcon=ing" vertex="1" parent="1">
          <mxGeometry x="280" y="270" width="50" height="48" as="geometry" />
        </mxCell>
        <mxCell id="qTTyC-xt6pcrKishkEDp-14" value="Ux" style="sketch=0;aspect=fixed;pointerEvents=1;shadow=0;dashed=0;html=1;strokeColor=none;labelPosition=center;verticalLabelPosition=bottom;verticalAlign=top;align=center;shape=mxgraph.mscae.enterprise.website_generic;fillColor=#7D7D7D;" vertex="1" parent="1">
          <mxGeometry x="570" y="116" width="50" height="44" as="geometry" />
        </mxCell>
        <mxCell id="qTTyC-xt6pcrKishkEDp-17" style="edgeStyle=orthogonalEdgeStyle;rounded=0;orthogonalLoop=1;jettySize=auto;html=1;entryX=0.5;entryY=0;entryDx=0;entryDy=0;entryPerimeter=0;strokeWidth=3;" edge="1" parent="1" target="qTTyC-xt6pcrKishkEDp-12">
          <mxGeometry relative="1" as="geometry">
            <mxPoint x="600" y="160" as="sourcePoint" />
            <mxPoint x="470" y="270" as="targetPoint" />
            <Array as="points">
              <mxPoint x="600" y="250" />
              <mxPoint x="305" y="250" />
            </Array>
          </mxGeometry>
        </mxCell>
        <mxCell id="qTTyC-xt6pcrKishkEDp-18" value="Admin" style="sketch=0;html=1;dashed=0;whitespace=wrap;fillColor=#2875E2;strokeColor=#ffffff;points=[[0.005,0.63,0],[0.1,0.2,0],[0.9,0.2,0],[0.5,0,0],[0.995,0.63,0],[0.72,0.99,0],[0.5,1,0],[0.28,0.99,0]];verticalLabelPosition=bottom;align=center;verticalAlign=top;shape=mxgraph.kubernetes.icon;prIcon=pod" vertex="1" parent="1">
          <mxGeometry x="570" y="318" width="50" height="48" as="geometry" />
        </mxCell>
        <mxCell id="qTTyC-xt6pcrKishkEDp-20" style="edgeStyle=orthogonalEdgeStyle;rounded=0;orthogonalLoop=1;jettySize=auto;html=1;exitX=0.995;exitY=0.63;exitDx=0;exitDy=0;exitPerimeter=0;strokeWidth=3;" edge="1" parent="1" source="qTTyC-xt6pcrKishkEDp-19" target="qTTyC-xt6pcrKishkEDp-18">
          <mxGeometry relative="1" as="geometry">
            <Array as="points">
              <mxPoint x="480" y="342" />
            </Array>
          </mxGeometry>
        </mxCell>
        <mxCell id="qTTyC-xt6pcrKishkEDp-19" value="" style="sketch=0;html=1;dashed=0;whitespace=wrap;fillColor=#2875E2;strokeColor=#ffffff;points=[[0.005,0.63,0],[0.1,0.2,0],[0.9,0.2,0],[0.5,0,0],[0.995,0.63,0],[0.72,0.99,0],[0.5,1,0],[0.28,0.99,0]];verticalLabelPosition=bottom;align=center;verticalAlign=top;shape=mxgraph.kubernetes.icon;prIcon=svc" vertex="1" parent="1">
          <mxGeometry x="430" y="318" width="50" height="48" as="geometry" />
        </mxCell>
        <mxCell id="qTTyC-xt6pcrKishkEDp-36" value="config" style="sketch=0;html=1;dashed=0;whitespace=wrap;fillColor=#2875E2;strokeColor=#ffffff;points=[[0.005,0.63,0],[0.1,0.2,0],[0.9,0.2,0],[0.5,0,0],[0.995,0.63,0],[0.72,0.99,0],[0.5,1,0],[0.28,0.99,0]];verticalLabelPosition=bottom;align=center;verticalAlign=top;shape=mxgraph.kubernetes.icon;prIcon=pod" vertex="1" parent="1">
          <mxGeometry x="570" y="390" width="50" height="48" as="geometry" />
        </mxCell>
        <mxCell id="qTTyC-xt6pcrKishkEDp-37" style="edgeStyle=orthogonalEdgeStyle;rounded=0;orthogonalLoop=1;jettySize=auto;html=1;exitX=0.995;exitY=0.63;exitDx=0;exitDy=0;exitPerimeter=0;strokeWidth=3;" edge="1" parent="1" source="qTTyC-xt6pcrKishkEDp-38" target="qTTyC-xt6pcrKishkEDp-36">
          <mxGeometry relative="1" as="geometry">
            <Array as="points">
              <mxPoint x="480" y="414" />
            </Array>
          </mxGeometry>
        </mxCell>
        <mxCell id="qTTyC-xt6pcrKishkEDp-38" value="" style="sketch=0;html=1;dashed=0;whitespace=wrap;fillColor=#2875E2;strokeColor=#ffffff;points=[[0.005,0.63,0],[0.1,0.2,0],[0.9,0.2,0],[0.5,0,0],[0.995,0.63,0],[0.72,0.99,0],[0.5,1,0],[0.28,0.99,0]];verticalLabelPosition=bottom;align=center;verticalAlign=top;shape=mxgraph.kubernetes.icon;prIcon=svc" vertex="1" parent="1">
          <mxGeometry x="430" y="390" width="50" height="48" as="geometry" />
        </mxCell>
        <mxCell id="qTTyC-xt6pcrKishkEDp-39" value="gitlab" style="sketch=0;html=1;dashed=0;whitespace=wrap;fillColor=#2875E2;strokeColor=#ffffff;points=[[0.005,0.63,0],[0.1,0.2,0],[0.9,0.2,0],[0.5,0,0],[0.995,0.63,0],[0.72,0.99,0],[0.5,1,0],[0.28,0.99,0]];verticalLabelPosition=bottom;align=center;verticalAlign=top;shape=mxgraph.kubernetes.icon;prIcon=pod" vertex="1" parent="1">
          <mxGeometry x="570" y="466" width="50" height="48" as="geometry" />
        </mxCell>
        <mxCell id="qTTyC-xt6pcrKishkEDp-40" style="edgeStyle=orthogonalEdgeStyle;rounded=0;orthogonalLoop=1;jettySize=auto;html=1;exitX=0.995;exitY=0.63;exitDx=0;exitDy=0;exitPerimeter=0;strokeWidth=3;" edge="1" parent="1" source="qTTyC-xt6pcrKishkEDp-41" target="qTTyC-xt6pcrKishkEDp-39">
          <mxGeometry relative="1" as="geometry">
            <Array as="points">
              <mxPoint x="480" y="490" />
            </Array>
          </mxGeometry>
        </mxCell>
        <mxCell id="qTTyC-xt6pcrKishkEDp-41" value="" style="sketch=0;html=1;dashed=0;whitespace=wrap;fillColor=#2875E2;strokeColor=#ffffff;points=[[0.005,0.63,0],[0.1,0.2,0],[0.9,0.2,0],[0.5,0,0],[0.995,0.63,0],[0.72,0.99,0],[0.5,1,0],[0.28,0.99,0]];verticalLabelPosition=bottom;align=center;verticalAlign=top;shape=mxgraph.kubernetes.icon;prIcon=svc" vertex="1" parent="1">
          <mxGeometry x="430" y="466" width="50" height="48" as="geometry" />
        </mxCell>
        <mxCell id="qTTyC-xt6pcrKishkEDp-42" value="incident" style="sketch=0;html=1;dashed=0;whitespace=wrap;fillColor=#2875E2;strokeColor=#ffffff;points=[[0.005,0.63,0],[0.1,0.2,0],[0.9,0.2,0],[0.5,0,0],[0.995,0.63,0],[0.72,0.99,0],[0.5,1,0],[0.28,0.99,0]];verticalLabelPosition=bottom;align=center;verticalAlign=top;shape=mxgraph.kubernetes.icon;prIcon=pod" vertex="1" parent="1">
          <mxGeometry x="570" y="550" width="50" height="48" as="geometry" />
        </mxCell>
        <mxCell id="qTTyC-xt6pcrKishkEDp-43" style="edgeStyle=orthogonalEdgeStyle;rounded=0;orthogonalLoop=1;jettySize=auto;html=1;exitX=0.995;exitY=0.63;exitDx=0;exitDy=0;exitPerimeter=0;strokeWidth=3;" edge="1" parent="1" source="qTTyC-xt6pcrKishkEDp-44" target="qTTyC-xt6pcrKishkEDp-42">
          <mxGeometry relative="1" as="geometry">
            <Array as="points">
              <mxPoint x="480" y="574" />
            </Array>
          </mxGeometry>
        </mxCell>
        <mxCell id="qTTyC-xt6pcrKishkEDp-44" value="" style="sketch=0;html=1;dashed=0;whitespace=wrap;fillColor=#2875E2;strokeColor=#ffffff;points=[[0.005,0.63,0],[0.1,0.2,0],[0.9,0.2,0],[0.5,0,0],[0.995,0.63,0],[0.72,0.99,0],[0.5,1,0],[0.28,0.99,0]];verticalLabelPosition=bottom;align=center;verticalAlign=top;shape=mxgraph.kubernetes.icon;prIcon=svc" vertex="1" parent="1">
          <mxGeometry x="430" y="550" width="50" height="48" as="geometry" />
        </mxCell>
        <mxCell id="qTTyC-xt6pcrKishkEDp-45" value="insight" style="sketch=0;html=1;dashed=0;whitespace=wrap;fillColor=#2875E2;strokeColor=#ffffff;points=[[0.005,0.63,0],[0.1,0.2,0],[0.9,0.2,0],[0.5,0,0],[0.995,0.63,0],[0.72,0.99,0],[0.5,1,0],[0.28,0.99,0]];verticalLabelPosition=bottom;align=center;verticalAlign=top;shape=mxgraph.kubernetes.icon;prIcon=pod" vertex="1" parent="1">
          <mxGeometry x="570" y="630" width="50" height="48" as="geometry" />
        </mxCell>
        <mxCell id="qTTyC-xt6pcrKishkEDp-46" style="edgeStyle=orthogonalEdgeStyle;rounded=0;orthogonalLoop=1;jettySize=auto;html=1;exitX=0.995;exitY=0.63;exitDx=0;exitDy=0;exitPerimeter=0;strokeWidth=3;" edge="1" parent="1" source="qTTyC-xt6pcrKishkEDp-47" target="qTTyC-xt6pcrKishkEDp-45">
          <mxGeometry relative="1" as="geometry">
            <Array as="points">
              <mxPoint x="480" y="654" />
            </Array>
          </mxGeometry>
        </mxCell>
        <mxCell id="qTTyC-xt6pcrKishkEDp-47" value="" style="sketch=0;html=1;dashed=0;whitespace=wrap;fillColor=#2875E2;strokeColor=#ffffff;points=[[0.005,0.63,0],[0.1,0.2,0],[0.9,0.2,0],[0.5,0,0],[0.995,0.63,0],[0.72,0.99,0],[0.5,1,0],[0.28,0.99,0]];verticalLabelPosition=bottom;align=center;verticalAlign=top;shape=mxgraph.kubernetes.icon;prIcon=svc" vertex="1" parent="1">
          <mxGeometry x="430" y="630" width="50" height="48" as="geometry" />
        </mxCell>
        <mxCell id="qTTyC-xt6pcrKishkEDp-48" value="prediction" style="sketch=0;html=1;dashed=0;whitespace=wrap;fillColor=#2875E2;strokeColor=#ffffff;points=[[0.005,0.63,0],[0.1,0.2,0],[0.9,0.2,0],[0.5,0,0],[0.995,0.63,0],[0.72,0.99,0],[0.5,1,0],[0.28,0.99,0]];verticalLabelPosition=bottom;align=center;verticalAlign=top;shape=mxgraph.kubernetes.icon;prIcon=pod" vertex="1" parent="1">
          <mxGeometry x="570" y="710" width="50" height="48" as="geometry" />
        </mxCell>
        <mxCell id="qTTyC-xt6pcrKishkEDp-49" style="edgeStyle=orthogonalEdgeStyle;rounded=0;orthogonalLoop=1;jettySize=auto;html=1;exitX=0.995;exitY=0.63;exitDx=0;exitDy=0;exitPerimeter=0;strokeWidth=3;" edge="1" parent="1" source="qTTyC-xt6pcrKishkEDp-50" target="qTTyC-xt6pcrKishkEDp-48">
          <mxGeometry relative="1" as="geometry">
            <Array as="points">
              <mxPoint x="480" y="734" />
            </Array>
          </mxGeometry>
        </mxCell>
        <mxCell id="qTTyC-xt6pcrKishkEDp-50" value="" style="sketch=0;html=1;dashed=0;whitespace=wrap;fillColor=#2875E2;strokeColor=#ffffff;points=[[0.005,0.63,0],[0.1,0.2,0],[0.9,0.2,0],[0.5,0,0],[0.995,0.63,0],[0.72,0.99,0],[0.5,1,0],[0.28,0.99,0]];verticalLabelPosition=bottom;align=center;verticalAlign=top;shape=mxgraph.kubernetes.icon;prIcon=svc" vertex="1" parent="1">
          <mxGeometry x="430" y="710" width="50" height="48" as="geometry" />
        </mxCell>
        <mxCell id="qTTyC-xt6pcrKishkEDp-51" value="product" style="sketch=0;html=1;dashed=0;whitespace=wrap;fillColor=#2875E2;strokeColor=#ffffff;points=[[0.005,0.63,0],[0.1,0.2,0],[0.9,0.2,0],[0.5,0,0],[0.995,0.63,0],[0.72,0.99,0],[0.5,1,0],[0.28,0.99,0]];verticalLabelPosition=bottom;align=center;verticalAlign=top;shape=mxgraph.kubernetes.icon;prIcon=pod" vertex="1" parent="1">
          <mxGeometry x="570" y="790" width="50" height="48" as="geometry" />
        </mxCell>
        <mxCell id="qTTyC-xt6pcrKishkEDp-52" style="edgeStyle=orthogonalEdgeStyle;rounded=0;orthogonalLoop=1;jettySize=auto;html=1;exitX=0.995;exitY=0.63;exitDx=0;exitDy=0;exitPerimeter=0;strokeWidth=3;" edge="1" parent="1" source="qTTyC-xt6pcrKishkEDp-53" target="qTTyC-xt6pcrKishkEDp-51">
          <mxGeometry relative="1" as="geometry">
            <Array as="points">
              <mxPoint x="480" y="814" />
            </Array>
          </mxGeometry>
        </mxCell>
        <mxCell id="qTTyC-xt6pcrKishkEDp-53" value="" style="sketch=0;html=1;dashed=0;whitespace=wrap;fillColor=#2875E2;strokeColor=#ffffff;points=[[0.005,0.63,0],[0.1,0.2,0],[0.9,0.2,0],[0.5,0,0],[0.995,0.63,0],[0.72,0.99,0],[0.5,1,0],[0.28,0.99,0]];verticalLabelPosition=bottom;align=center;verticalAlign=top;shape=mxgraph.kubernetes.icon;prIcon=svc" vertex="1" parent="1">
          <mxGeometry x="430" y="790" width="50" height="48" as="geometry" />
        </mxCell>
        <mxCell id="qTTyC-xt6pcrKishkEDp-54" value="review" style="sketch=0;html=1;dashed=0;whitespace=wrap;fillColor=#2875E2;strokeColor=#ffffff;points=[[0.005,0.63,0],[0.1,0.2,0],[0.9,0.2,0],[0.5,0,0],[0.995,0.63,0],[0.72,0.99,0],[0.5,1,0],[0.28,0.99,0]];verticalLabelPosition=bottom;align=center;verticalAlign=top;shape=mxgraph.kubernetes.icon;prIcon=pod" vertex="1" parent="1">
          <mxGeometry x="570" y="860" width="50" height="48" as="geometry" />
        </mxCell>
        <mxCell id="qTTyC-xt6pcrKishkEDp-55" style="edgeStyle=orthogonalEdgeStyle;rounded=0;orthogonalLoop=1;jettySize=auto;html=1;exitX=0.995;exitY=0.63;exitDx=0;exitDy=0;exitPerimeter=0;strokeWidth=3;" edge="1" parent="1" source="qTTyC-xt6pcrKishkEDp-56" target="qTTyC-xt6pcrKishkEDp-54">
          <mxGeometry relative="1" as="geometry">
            <Array as="points">
              <mxPoint x="480" y="884" />
            </Array>
          </mxGeometry>
        </mxCell>
        <mxCell id="qTTyC-xt6pcrKishkEDp-56" value="" style="sketch=0;html=1;dashed=0;whitespace=wrap;fillColor=#2875E2;strokeColor=#ffffff;points=[[0.005,0.63,0],[0.1,0.2,0],[0.9,0.2,0],[0.5,0,0],[0.995,0.63,0],[0.72,0.99,0],[0.5,1,0],[0.28,0.99,0]];verticalLabelPosition=bottom;align=center;verticalAlign=top;shape=mxgraph.kubernetes.icon;prIcon=svc" vertex="1" parent="1">
          <mxGeometry x="430" y="860" width="50" height="48" as="geometry" />
        </mxCell>
        <mxCell id="qTTyC-xt6pcrKishkEDp-58" value="semantic" style="sketch=0;html=1;dashed=0;whitespace=wrap;fillColor=#2875E2;strokeColor=#ffffff;points=[[0.005,0.63,0],[0.1,0.2,0],[0.9,0.2,0],[0.5,0,0],[0.995,0.63,0],[0.72,0.99,0],[0.5,1,0],[0.28,0.99,0]];verticalLabelPosition=bottom;align=center;verticalAlign=top;shape=mxgraph.kubernetes.icon;prIcon=pod" vertex="1" parent="1">
          <mxGeometry x="570" y="940" width="50" height="48" as="geometry" />
        </mxCell>
        <mxCell id="qTTyC-xt6pcrKishkEDp-59" style="edgeStyle=orthogonalEdgeStyle;rounded=0;orthogonalLoop=1;jettySize=auto;html=1;exitX=0.995;exitY=0.63;exitDx=0;exitDy=0;exitPerimeter=0;strokeWidth=3;" edge="1" parent="1" source="qTTyC-xt6pcrKishkEDp-60" target="qTTyC-xt6pcrKishkEDp-58">
          <mxGeometry relative="1" as="geometry">
            <Array as="points">
              <mxPoint x="480" y="964" />
            </Array>
          </mxGeometry>
        </mxCell>
        <mxCell id="qTTyC-xt6pcrKishkEDp-60" value="" style="sketch=0;html=1;dashed=0;whitespace=wrap;fillColor=#2875E2;strokeColor=#ffffff;points=[[0.005,0.63,0],[0.1,0.2,0],[0.9,0.2,0],[0.5,0,0],[0.995,0.63,0],[0.72,0.99,0],[0.5,1,0],[0.28,0.99,0]];verticalLabelPosition=bottom;align=center;verticalAlign=top;shape=mxgraph.kubernetes.icon;prIcon=svc" vertex="1" parent="1">
          <mxGeometry x="430" y="940" width="50" height="48" as="geometry" />
        </mxCell>
        <mxCell id="qTTyC-xt6pcrKishkEDp-61" value="tfs" style="sketch=0;html=1;dashed=0;whitespace=wrap;fillColor=#2875E2;strokeColor=#ffffff;points=[[0.005,0.63,0],[0.1,0.2,0],[0.9,0.2,0],[0.5,0,0],[0.995,0.63,0],[0.72,0.99,0],[0.5,1,0],[0.28,0.99,0]];verticalLabelPosition=bottom;align=center;verticalAlign=top;shape=mxgraph.kubernetes.icon;prIcon=pod" vertex="1" parent="1">
          <mxGeometry x="570" y="1020" width="50" height="48" as="geometry" />
        </mxCell>
        <mxCell id="qTTyC-xt6pcrKishkEDp-62" style="edgeStyle=orthogonalEdgeStyle;rounded=0;orthogonalLoop=1;jettySize=auto;html=1;exitX=0.995;exitY=0.63;exitDx=0;exitDy=0;exitPerimeter=0;strokeWidth=3;" edge="1" parent="1" source="qTTyC-xt6pcrKishkEDp-63" target="qTTyC-xt6pcrKishkEDp-61">
          <mxGeometry relative="1" as="geometry">
            <Array as="points">
              <mxPoint x="480" y="1044" />
            </Array>
          </mxGeometry>
        </mxCell>
        <mxCell id="qTTyC-xt6pcrKishkEDp-63" value="" style="sketch=0;html=1;dashed=0;whitespace=wrap;fillColor=#2875E2;strokeColor=#ffffff;points=[[0.005,0.63,0],[0.1,0.2,0],[0.9,0.2,0],[0.5,0,0],[0.995,0.63,0],[0.72,0.99,0],[0.5,1,0],[0.28,0.99,0]];verticalLabelPosition=bottom;align=center;verticalAlign=top;shape=mxgraph.kubernetes.icon;prIcon=svc" vertex="1" parent="1">
          <mxGeometry x="430" y="1020" width="50" height="48" as="geometry" />
        </mxCell>
      </root>
    </mxGraphModel>
  </diagram>
</mxfile>
